<svg xmlns="http://www.w3.org/2000/svg" viewBox="0 0 512 512" role="img" aria-label="Casa Bevk">
  <rect width="512" height="512" rx="112" fill="#6B8E6B"/>
  <path d="M150 386 L150 250 L256 154 L362 250 L362 386 Z" fill="none" stroke="#F7F5F0" stroke-width="14" stroke-linejoin="round" stroke-linecap="round"/>
  <path d="M150 386 C 116 348 130 300 152 252 C 162 232 184 214 210 206" fill="none" stroke="#F7F5F0" stroke-width="7" stroke-linecap="round"/>
  <ellipse cx="120" cy="336" rx="9" ry="16" fill="#F7F5F0"/>
  <ellipse cx="124" cy="288" rx="9" ry="16" fill="#F7F5F0"/>
  <ellipse cx="150" cy="232" rx="9" ry="16" fill="#F7F5F0"/>
  <ellipse cx="192" cy="210" rx="9" ry="16" fill="#F7F5F0"/>
  <ellipse cx="262" cy="332" rx="30" ry="36" fill="#E8B45A"/>
  <path d="M262 276 L249 314 L275 314 Z" fill="#5E7A52"/>
  <path d="M236 288 L259 316 L267 306 Z" fill="#5E7A52"/>
  <path d="M288 288 L265 316 L257 306 Z" fill="#5E7A52"/>
</svg>
